<?xml version="1.0" encoding="UTF-8"?>
<svg width="700pt" height="700pt" version="1.1" viewBox="0 0 700 700" xmlns="http://www.w3.org/2000/svg">
 <path d="m373.06 280 105.41-105.41c6.5898-6.5898 6.5898-16.469 0-21.41-6.5898-6.5898-16.469-6.5898-21.41 0l-107.06 105.41-105.41-105.41c-6.5898-4.9414-16.469-4.9414-21.41 1.6484-4.9414 6.5898-4.9414 14.824 0 19.766l105.41 105.41-105.41 105.41c-6.5898 6.5898-6.5898 16.469 0 21.41 6.5898 6.5898 16.469 6.5898 21.41 0l105.41-105.41 105.41 105.41c6.5898 6.5898 16.469 6.5898 21.41 0 6.5898-6.5898 6.5898-16.469 0-21.41z"/>
</svg>
