<?xml version="1.0" encoding="UTF-8"?>
<svg width="700pt" height="700pt" version="1.1" viewBox="0 0 700 700" xmlns="http://www.w3.org/2000/svg" xmlns:xlink="http://www.w3.org/1999/xlink">
 <g>
  <path d="m565.98 199.57c-10.98-10.512-23.57-11.082-27.059-11.016h-37.32c-7.918-20.527-24.332-27.402-34.238-27.875l-41.922-0.015625c-8.0156-23.148-27.086-32.008-38.371-33.359l-0.95703-0.11328h-42.852v-80.414c0.23438-4.3867 0.007813-18.16-10.613-30.023-9.9531-11.121-25.324-16.758-45.684-16.758-19.887 0-35.293 5.5156-45.793 16.395-12.188 12.629-12.766 27.754-12.734 31.059v193.74c-20.602-20.844-39.945-31.438-57.508-31.438-45.102 0-51.832 26.184-51.832 41.793 0 13.238 5.668 31.754 6.3125 33.82l0.62109 1.9805 129.19 206.48v66.172h263.75l61.941-161.54-0.003906-156.96c0-18.34-5.0234-32.445-14.93-41.934zm-17.328 192.92-51.863 135.25h-209.32v-43.172l-131.84-210.73c-1.6836-5.8242-4.2734-16.438-4.2734-22.293 0-4.5859 0.86719-5.4766 1.1523-5.7695 1.6875-1.7344 7.5234-3.7617 18.418-3.7617 16.168 0 43.547 29.082 56.953 48.727l0.55469-0.37891v53.789h32.262v-296.78l-0.011718-0.57812c0-0.039063 0.32422-4.5 3.7031-8 4.125-4.2734 11.934-6.5352 22.578-6.5352 10.258 0 17.871 2.0508 21.43 5.7773 2.3906 2.5 2.6445 5.6133 2.6641 6.5898l-0.058594 0.23438 0.003906 192.18h32.262v-77.59h40.523c2.5703 0.64062 13.129 4.5352 13.129 25.152l-0.003906 52.438h32.262v-44.121h36.215c0.011719 0.003906 0.023437 0.007813 0.035156 0.011719l1.1719-0.011719-1.1445 0.019531c3.3398 0.99219 8.4453 6.7422 8.4453 22.902v52.438h32.262v-47.465h32.961l0.70312-0.015625c0.019532 0 2.1641 0.46094 3.8477 2.0742 3.2109 3.0742 4.9805 9.6914 4.9805 18.633z"/>
 </g>
</svg>
